<svg xmlns="http://www.w3.org/2000/svg" xmlns:xlink="http://www.w3.org/1999/xlink" viewBox="0 0 124.02 168.1"><defs><style>.cls-1{fill:url(#radial-gradient);}.cls-2{fill:#d34071;}.cls-3{fill:#cc6d92;}.cls-4{fill:#c1859d;}.cls-5{fill:#a54071;}.cls-6{fill:#606096;}.cls-7{fill:#8787c6;}.cls-8{fill:#6a6ace;}.cls-9{fill:#27348b;}.cls-10{fill:#55a;}.cls-11{fill:#c17465;}.cls-12{fill:#d16b50;}.cls-13{fill:#db5d31;}.cls-14{fill:#944ea0;}.cls-15{fill:#82368c;}.cls-16{fill:#dbc775;}.cls-17{fill:#f7f0d2;}.cls-18{fill:#f2f2f2;}.cls-19{fill:#e8e5d9;}.cls-20{fill:#e2daba;}.cls-21{fill:#e5d693;}.cls-22{fill:#f9df6e;}.cls-23{fill:#f2d144;}.cls-24{fill:#d5b92a;}.cls-25{fill:#b2a157;}.cls-26{fill:#998b4f;}.cls-27{fill:#82722e;}.cls-28{fill:#cee0a4;}.cls-29{fill:#b0eabb;}.cls-30{fill:#ceefd4;}.cls-31{fill:#bde577;}.cls-32{fill:#9dc165;}.cls-33{fill:#85a665;}.cls-34{fill:#e0f2af;}.cls-35{fill:#cee08d;}.cls-36{fill:#abd3cc;}.cls-37{fill:#8edda0;}.cls-38{fill:#5cea87;}.cls-39{fill:#95e5d6;}.cls-40{fill:#c0e5d6;}.cls-41{fill:#d9ffff;}.cls-42{fill:#bfffff;}.cls-43{fill:#c5d3d1;}.cls-44{fill:#e1e1f9;}.cls-45{fill:#d6d6e5;}.cls-46{fill:#b2b2d3;}.cls-47{fill:#a3a3e5;}.cls-48{fill:#976da0;}.cls-49{fill:#c996d6;}.cls-50{fill:#dbc1e5;}.cls-51{fill:#c9b0d1;}.cls-52{fill:#b286bc;}.cls-53{fill:#98dd3e;}.cls-54{fill:#efbb8e;}.cls-55{fill:#efac6a;}.cls-56{fill:#db9d5a;}.cls-57{fill:#d89032;}.cls-58{fill:#bf8f56;}</style><radialGradient id="radial-gradient" cx="88.65" cy="128.69" r="60.81" gradientTransform="matrix(0.71, 0.71, -0.07, 0.07, 35.06, 56.91)" gradientUnits="userSpaceOnUse"><stop offset="0" stop-color="#c6c6c6"/><stop offset="0.11" stop-color="#c9c9c9" stop-opacity="0.94"/><stop offset="0.3" stop-color="#d3d3d3" stop-opacity="0.78"/><stop offset="0.56" stop-color="#e1e1e1" stop-opacity="0.52"/><stop offset="0.87" stop-color="#f6f6f6" stop-opacity="0.16"/><stop offset="1" stop-color="#fff" stop-opacity="0"/></radialGradient></defs><title>logo</title><g id="objects"><circle class="cls-1" cx="88.65" cy="128.69" r="60.81" transform="translate(-90.47 78.97) rotate(-45)"/><polygon class="cls-2" points="39.63 6.87 40.57 14.57 36.89 14.05 39.63 6.87"/><polygon class="cls-3" points="39.63 6.87 42.85 8.22 40.57 14.57 39.63 6.87"/><polygon class="cls-4" points="39.63 6.87 41.96 4.47 42.85 8.22 39.63 6.87"/><polygon class="cls-3" points="41.96 4.47 44.96 5.02 42.85 8.22 41.96 4.47"/><polygon class="cls-3" points="40.57 14.57 36.76 20.98 36.89 14.05 40.57 14.57"/><polygon class="cls-2" points="40.57 14.57 39.49 21.95 36.76 20.98 40.57 14.57"/><polygon class="cls-5" points="36.76 20.98 40.32 26.04 39.49 21.95 36.76 20.98"/><polygon class="cls-6" points="44.96 5.02 45.21 7.67 47.2 5.49 44.96 5.02"/><polygon class="cls-7" points="44.96 5.02 42.85 8.22 45.21 7.67 44.96 5.02"/><polygon class="cls-8" points="42.85 8.22 40.57 14.57 45.21 7.67 42.85 8.22"/><polygon class="cls-6" points="45.21 7.67 42.85 15.57 40.57 14.57 45.21 7.67"/><polygon class="cls-9" points="40.57 14.57 41.96 22.26 42.85 15.57 40.57 14.57"/><polygon class="cls-6" points="40.57 14.57 39.49 21.95 41.96 22.26 40.57 14.57"/><polygon class="cls-8" points="39.49 21.95 40.32 26.04 41.96 22.26 39.49 21.95"/><polygon class="cls-10" points="41.96 22.26 42.4 27.48 40.32 26.04 41.96 22.26"/><polygon class="cls-3" points="47.2 5.49 52.58 9.11 45.21 7.67 47.2 5.49"/><polygon class="cls-4" points="47.2 5.49 55.43 6.51 52.58 9.11 47.2 5.49"/><polygon class="cls-2" points="45.21 7.67 42.85 15.57 52.58 9.11 45.21 7.67"/><polygon class="cls-11" points="52.58 9.11 50.33 16.43 42.85 15.57 52.58 9.11"/><polygon class="cls-12" points="42.85 15.57 41.96 22.26 50.33 16.43 42.85 15.57"/><polygon class="cls-13" points="50.33 16.43 50.33 20.98 41.96 22.26 50.33 16.43"/><polygon class="cls-11" points="41.96 22.26 46.51 27.58 50.33 20.98 41.96 22.26"/><polygon class="cls-5" points="41.96 22.26 46.51 27.58 42.4 27.48 41.96 22.26"/><polygon class="cls-14" points="55.43 6.51 53.25 10 52.58 9.11 55.43 6.51"/><polygon class="cls-15" points="52.58 9.11 50.33 16.43 53.25 10 52.58 9.11"/><polygon class="cls-6" points="53.25 10 52.19 16.43 50.33 16.43 53.25 10"/><polygon class="cls-15" points="50.33 16.43 50.33 20.98 52.19 16.43 50.33 16.43"/><polygon class="cls-14" points="52.19 16.43 53.24 18.83 50.33 20.98 52.19 16.43"/><polygon class="cls-6" points="52.19 16.43 56.69 18.96 53.24 18.83 52.19 16.43"/><polygon class="cls-10" points="52.19 16.43 57.18 10.72 53.25 10 52.19 16.43"/><polygon class="cls-8" points="57.18 10.72 56.69 18.96 52.19 16.43 57.18 10.72"/><polygon class="cls-8" points="53.25 10 55.43 6.51 57.18 10.72 53.25 10"/><polygon class="cls-16" points="53.24 18.83 51.61 23.27 56.69 18.96 53.24 18.83"/><polygon class="cls-16" points="46.51 27.58 71.89 45.22 66.73 48.52 46.51 27.58"/><polygon class="cls-17" points="51.61 23.27 66.4 26.04 52.73 31.9 51.61 23.27"/><polygon class="cls-18" points="56.69 18.96 66.4 26.04 51.61 23.27 56.69 18.96"/><polygon class="cls-17" points="56.69 18.96 60.22 20.57 66.4 26.04 56.69 18.96"/><polygon class="cls-17" points="66.4 26.04 66.92 35.13 70.85 27.28 66.4 26.04"/><polygon class="cls-17" points="70.85 27.28 70.13 35.13 75.45 28.34 70.85 27.28"/><polygon class="cls-18" points="75.45 28.34 77.78 29.17 70.13 35.13 75.45 28.34"/><polygon class="cls-19" points="70.85 27.28 70.13 35.13 66.92 35.13 70.85 27.28"/><polygon class="cls-19" points="51.61 23.27 46.51 27.58 50.33 20.98 51.61 23.27"/><polygon class="cls-19" points="46.51 27.58 52.31 28.68 52.73 31.9 46.51 27.58"/><polygon class="cls-20" points="53.24 18.83 50.33 20.98 51.61 23.27 53.24 18.83"/><polygon class="cls-20" points="51.61 23.27 52.31 28.68 46.51 27.58 51.61 23.27"/><polygon class="cls-20" points="66.4 26.04 61.98 33.07 52.73 31.9 66.4 26.04"/><polygon class="cls-20" points="77.54 32.45 75.45 36.66 80.32 35.13 77.54 32.45"/><polygon class="cls-20" points="46.51 27.58 64.1 53.78 66.73 48.52 46.51 27.58"/><polygon class="cls-20" points="70.13 35.13 71.85 38.2 67.63 42.25 70.13 35.13"/><polygon class="cls-21" points="77.78 29.17 77.54 32.45 70.13 35.13 77.78 29.17"/><polygon class="cls-21" points="66.4 26.04 66.92 35.13 61.98 33.07 66.4 26.04"/><polygon class="cls-21" points="46.57 27.48 43.66 46.44 51.46 48.83 46.57 27.48"/><polygon class="cls-21" points="43.66 46.44 41.27 43.68 39.49 46.18 43.66 46.44"/><polygon class="cls-21" points="66.92 35.13 67.63 42.25 70.13 35.13 66.92 35.13"/><polygon class="cls-21" points="71.85 38.2 74.92 44.7 67.63 42.25 71.85 38.2"/><polygon class="cls-21" points="43.66 46.44 39.85 50.53 47.56 52.92 43.66 46.44"/><polygon class="cls-22" points="77.54 32.45 75.45 36.66 70.13 35.13 77.54 32.45"/><polygon class="cls-22" points="67.63 42.25 71.89 45.22 74.92 44.7 67.63 42.25"/><polygon class="cls-22" points="43.66 46.44 49.11 52.63 51.46 48.83 43.66 46.44"/><polygon class="cls-22" points="39.85 50.53 32.78 46.44 28.23 46.68 39.85 50.53"/><polygon class="cls-22" points="66.73 48.52 81.01 61.41 80.32 56.7 66.73 48.52"/><polygon class="cls-23" points="46.57 27.48 59.17 46.44 51.46 48.83 46.57 27.48"/><polygon class="cls-23" points="39.49 46.18 35.26 42.25 32.78 46.44 39.49 46.18"/><polygon class="cls-23" points="66.92 35.13 63.21 39.19 67.63 42.25 66.92 35.13"/><polygon class="cls-24" points="66.92 35.13 61.98 33.07 63.21 39.19 66.92 35.13"/><polygon class="cls-24" points="39.49 46.18 39.85 50.53 43.66 46.44 39.49 46.18"/><polygon class="cls-24" points="43.66 46.44 47.56 52.92 49.11 52.63 43.66 46.44"/><polygon class="cls-24" points="59.17 46.44 52.87 52.92 51.46 48.83 59.17 46.44"/><polygon class="cls-24" points="59.17 46.44 62.91 52.01 56.83 54.69 59.17 46.44"/><polygon class="cls-25" points="61.98 33.07 63.21 39.19 52.73 31.9 61.98 33.07"/><polygon class="cls-25" points="59.17 46.44 56.83 54.69 52.87 52.92 59.17 46.44"/><polygon class="cls-25" points="39.49 46.18 39.85 50.53 32.78 46.44 39.49 46.18"/><polygon class="cls-24" points="32.78 46.44 30.67 40.68 35.26 42.25 32.78 46.44"/><polygon class="cls-25" points="30.67 40.68 28.81 42.69 32.78 46.44 30.67 40.68"/><polygon class="cls-25" points="28.81 42.69 24.69 40.52 24.82 44.71 28.81 42.69"/><polygon class="cls-26" points="28.81 42.69 28.23 46.68 24.82 44.71 28.81 42.69"/><polygon class="cls-26" points="24.69 40.52 26.87 39.58 28.81 42.69 24.69 40.52"/><polygon class="cls-26" points="30.67 40.68 26.87 39.58 28.46 37.89 30.67 40.68"/><polygon class="cls-27" points="26.87 39.58 28.81 42.69 30.67 40.68 26.87 39.58"/><polygon class="cls-27" points="28.81 42.69 32.78 46.44 28.23 46.68 28.81 42.69"/><polygon class="cls-24" points="30.67 40.68 30.93 38.03 28.46 37.89 30.67 40.68"/><polygon class="cls-23" points="30.93 38.03 30.67 40.68 33.34 41.6 30.93 38.03"/><polygon class="cls-28" points="66.73 48.52 64.1 53.78 74.92 55.91 66.73 48.52"/><polygon class="cls-29" points="74.92 55.91 61.98 65.77 64.1 53.78 74.92 55.91"/><polygon class="cls-30" points="74.92 55.91 75.83 71.76 61.98 65.77 74.92 55.91"/><polygon class="cls-29" points="61.98 65.77 62.25 70.95 75.83 71.76 61.98 65.77"/><polygon class="cls-31" points="74.92 55.91 81.01 61.41 75.83 71.76 74.92 55.91"/><polygon class="cls-20" points="66.73 48.52 71.89 45.22 80.32 56.7 66.73 48.52"/><polygon class="cls-19" points="71.89 45.22 78.79 48.04 80.32 56.7 71.89 45.22"/><polygon class="cls-17" points="71.89 45.22 74.92 44.7 78.79 48.04 71.89 45.22"/><polygon class="cls-32" points="64.1 53.78 58.17 64.33 61.98 65.77 64.1 53.78"/><polygon class="cls-32" points="64.1 53.78 56.83 54.69 62.91 52.01 64.1 53.78"/><polygon class="cls-33" points="56.83 54.69 55.09 59.36 64.1 53.78 56.83 54.69"/><polygon class="cls-26" points="64.1 53.78 58.17 64.33 55.09 59.36 64.1 53.78"/><polygon class="cls-34" points="61.98 65.77 55.11 71.7 62.25 70.95 61.98 65.77"/><polygon class="cls-34" points="45.29 57.73 43.66 72.34 36.45 62.86 45.29 57.73"/><polygon class="cls-28" points="45.29 57.73 46.52 71.39 43.66 72.34 45.29 57.73"/><polygon class="cls-34" points="45.29 57.73 55.11 71.7 46.52 71.39 45.29 57.73"/><polygon class="cls-28" points="45.29 57.73 55.09 59.36 55.11 71.7 45.29 57.73"/><polygon class="cls-31" points="45.29 57.73 56.83 54.69 55.09 59.36 45.29 57.73"/><polygon class="cls-35" points="55.09 59.36 58.17 64.33 55.11 71.7 55.09 59.36"/><polygon class="cls-31" points="58.17 64.33 61.98 65.77 55.11 71.7 58.17 64.33"/><polygon class="cls-30" points="43.66 72.34 36.45 62.86 34.54 67.7 43.66 72.34"/><polygon class="cls-29" points="34.54 67.7 33.34 73.58 43.66 72.34 34.54 67.7"/><polygon class="cls-36" points="33.34 73.58 42.61 77.99 43.66 72.34 33.34 73.58"/><polygon class="cls-37" points="33.34 73.58 29.44 87.37 42.61 77.99 33.34 73.58"/><polygon class="cls-38" points="42.61 77.99 36.09 88.83 29.44 87.37 42.61 77.99"/><polygon class="cls-39" points="62.25 70.95 75.83 83.41 75.83 71.76 62.25 70.95"/><polygon class="cls-36" points="62.25 70.95 63.6 82.4 75.83 83.41 62.25 70.95"/><polygon class="cls-40" points="75.83 83.41 65.92 89.13 63.6 82.4 75.83 83.41"/><polygon class="cls-36" points="75.83 83.41 68.91 93.77 65.92 89.13 75.83 83.41"/><polygon class="cls-41" points="75.83 83.41 76.92 85.76 68.91 93.77 75.83 83.41"/><polygon class="cls-42" points="76.92 85.76 74.19 95.09 68.91 93.77 76.92 85.76"/><polygon class="cls-40" points="76.92 85.76 78.65 94.23 74.19 95.09 76.92 85.76"/><polygon class="cls-42" points="76.92 85.76 81.18 84.92 78.65 94.23 76.92 85.76"/><polygon class="cls-43" points="81.18 84.92 83.67 95.28 78.65 94.23 81.18 84.92"/><polygon class="cls-44" points="81.18 84.92 100.22 88.32 83.67 95.28 81.18 84.92"/><polygon class="cls-45" points="100.22 88.32 97.58 93.98 83.67 95.28 100.22 88.32"/><polygon class="cls-43" points="100.22 88.32 102.37 95.68 97.58 93.98 100.22 88.32"/><polygon class="cls-44" points="100.22 88.32 107.66 89.13 102.37 95.68 100.22 88.32"/><polygon class="cls-46" points="107.66 89.13 107.96 100.1 102.37 95.68 107.66 89.13"/><polygon class="cls-47" points="107.66 89.13 112.49 89.45 107.96 100.1 107.66 89.13"/><polygon class="cls-47" points="107.66 89.13 106.41 87.42 103.94 88.73 107.66 89.13"/><polygon class="cls-8" points="106.41 87.42 112.49 89.45 107.66 89.13 106.41 87.42"/><polygon class="cls-7" points="112.49 89.45 114.86 96.94 107.96 100.1 112.49 89.45"/><polygon class="cls-8" points="107.96 100.1 113.65 102.43 114.86 96.94 107.96 100.1"/><polygon class="cls-10" points="107.96 100.1 107.65 103.45 110.3 101.06 107.96 100.1"/><polygon class="cls-9" points="107.65 103.45 110.13 104.81 110.3 101.06 107.65 103.45"/><polygon class="cls-6" points="110.3 101.06 113.65 102.43 110.13 104.81 110.3 101.06"/><polygon class="cls-8" points="29.44 87.37 25.34 96.77 36.09 88.83 29.44 87.37"/><polygon class="cls-6" points="36.09 88.83 33.07 95.93 25.34 96.77 36.09 88.83"/><polygon class="cls-9" points="33.07 95.93 28.71 99.19 25.34 96.77 33.07 95.93"/><polygon class="cls-9" points="25.34 96.77 24.51 93.96 26.79 93.44 25.34 96.77"/><polygon class="cls-48" points="28.71 99.19 35.93 100.73 28.52 105.52 28.71 99.19"/><polygon class="cls-49" points="28.71 99.19 33.07 95.93 33.07 100.12 28.71 99.19"/><polygon class="cls-50" points="33.07 95.93 35.03 96.37 33.07 100.12 33.07 95.93"/><polygon class="cls-51" points="35.03 96.37 35.93 100.73 33.07 100.12 35.03 96.37"/><polygon class="cls-48" points="28.71 99.19 25.34 96.77 19.81 101.33 28.71 99.19"/><polygon class="cls-52" points="35.93 100.73 34.81 105.73 28.52 105.52 35.93 100.73"/><polygon class="cls-52" points="28.71 99.19 28.52 105.52 19.81 101.33 28.71 99.19"/><polygon class="cls-48" points="19.81 101.33 21.18 107.28 28.52 105.52 19.81 101.33"/><polygon class="cls-14" points="19.81 101.33 12.8 106.55 21.18 107.28 19.81 101.33"/><polygon class="cls-15" points="19.81 101.33 12.48 103.48 15.29 104.69 19.81 101.33"/><polygon class="cls-48" points="15.29 104.69 12.8 106.55 12.48 103.48 15.29 104.69"/><polygon class="cls-20" points="35.26 42.25 41.27 43.68 39.49 46.18 35.26 42.25"/><polygon class="cls-19" points="41.27 43.68 44.09 43.68 43.66 46.44 41.27 43.68"/><polygon class="cls-34" points="28.46 37.89 30.09 36.23 25.9 36.63 28.46 37.89"/><polygon class="cls-28" points="25.9 36.63 26.87 39.58 28.46 37.89 25.9 36.63"/><polygon class="cls-31" points="25.9 36.63 24.69 40.52 26.87 39.58 25.9 36.63"/><polygon class="cls-53" points="25.9 36.63 22.59 40.21 24.69 40.52 25.9 36.63"/><polygon class="cls-32" points="25.9 36.63 24.98 36.23 22.59 40.21 25.9 36.63"/><polygon class="cls-17" points="25.9 36.63 30.17 34.38 30.09 36.23 25.9 36.63"/><polygon class="cls-28" points="25.9 36.63 26.35 35.41 30.17 34.38 25.9 36.63"/><polygon class="cls-53" points="24.98 36.23 0.7 1.08 0.95 0.8 26.35 35.41 25.9 36.63 24.98 36.23"/><path class="cls-53" d="M27,21.47c.16.16,0,.63-.44,1s-.88.61-1.05.45,0-.64.44-1.05S26.81,21.3,27,21.47Z" transform="translate(-25.43 -21.41)"/><polygon class="cls-54" points="77.78 29.17 84.57 33.37 77.54 32.45 77.78 29.17"/><polygon class="cls-55" points="84.57 33.37 80.32 35.13 77.54 32.45 84.57 33.37"/><polygon class="cls-55" points="77.78 29.17 81.51 27.59 84.57 33.37 77.78 29.17"/><polygon class="cls-56" points="81.51 27.59 84.45 28.46 84.57 33.37 81.51 27.59"/><polygon class="cls-57" points="84.45 28.46 86.49 24.35 87.35 25.56 84.45 28.46"/><polygon class="cls-58" points="84.45 28.46 81.51 27.59 86.49 24.35 84.45 28.46"/><polygon class="cls-54" points="81.51 27.59 78.58 27.28 77.78 29.17 81.51 27.59"/><polygon class="cls-55" points="78.58 27.28 80.28 26.07 81.51 27.59 78.58 27.28"/><polygon class="cls-56" points="81.51 27.59 82.49 26.02 80.28 26.07 81.51 27.59"/><polygon class="cls-56" points="80.28 26.07 82.17 24.06 83.2 24.64 80.28 26.07"/><polygon class="cls-55" points="83.2 24.64 82.49 26.02 80.28 26.07 83.2 24.64"/><polygon class="cls-55" points="86.49 24.35 87.35 23.9 88.4 24.54 86.49 24.35"/><polygon class="cls-56" points="86.49 24.35 87.35 25.56 88.4 24.54 86.49 24.35"/><polygon class="cls-58" points="84.45 28.46 87.35 29.36 84.5 30.34 84.45 28.46"/><polygon class="cls-58" points="84.5 30.34 87.67 31.43 84.53 31.9 84.5 30.34"/><polygon class="cls-57" points="87.35 29.36 89.26 27.42 84.45 28.46 87.35 29.36"/><polygon class="cls-56" points="89.26 27.42 90.63 28.34 87.35 29.36 89.26 27.42"/><polygon class="cls-56" points="87.67 31.43 89.45 29.36 84.5 30.34 87.67 31.43"/><polygon class="cls-57" points="84.53 31.9 87.44 33.79 84.57 33.37 84.53 31.9"/><polygon class="cls-56" points="84.53 31.9 89.38 32.36 87.44 33.79 84.53 31.9"/><polygon class="cls-55" points="89.45 29.36 90.25 30.34 87.67 31.43 89.45 29.36"/></g></svg>